<?xml version="1.0" encoding="UTF-8"?>
<svg xmlns="http://www.w3.org/2000/svg" xmlns:xlink="http://www.w3.org/1999/xlink" width="100pt" height="100pt" viewBox="0 0 100 100" version="1.1">
<g id="surface1">
<path style=" stroke:none;fill-rule:evenodd;fill:#000000;fill-opacity:1;" d="M 70.589844 5.882812 L 70.589844 0.117188 L 35.292969 0.117188 C 35.292969 0.117188 35.292969 0.0585938 35.292969 5.882812 L 41.234375 5.882812 L 41.234375 41.175781 L 17.648438 88.234375 C 17.648438 88.234375 17.648438 93.882812 23.53125 93.882812 L 82.351562 93.882812 C 88.234375 93.882812 88.234375 88.234375 88.234375 88.234375 L 64.46875 41.175781 L 64.351562 5.882812 Z M 82.351562 88.410156 L 23.53125 88.410156 L 47.058594 41.175781 L 47.058594 5.882812 L 58.824219 5.882812 L 58.824219 41.175781 Z M 82.351562 88.410156 "/>
<path style=" stroke:none;fill-rule:nonzero;fill:#4FA52B;fill-opacity:1;" d="M 62.207031 59.726562 C 60.496094 59.675781 59.605469 60.480469 59.394531 60.550781 C 59.589844 60.183594 59.722656 59.949219 60.21875 59.429688 C 58.523438 59.414062 56.953125 59.78125 55.753906 60.902344 C 54.144531 62.40625 54.273438 63.652344 54.269531 63.644531 C 54.269531 63.648438 54.011719 62.835938 53.9375 61.964844 C 52.1875 64.386719 51.5 67.59375 52.824219 69.988281 C 53.648438 68 54.957031 66.289062 56.640625 64.941406 C 56.695312 63.523438 57.265625 62.328125 58.167969 61.445312 C 57.351562 62.417969 56.996094 63.523438 57.03125 64.640625 C 58.988281 63.179688 61.394531 62.203125 64.03125 61.882812 C 62.121094 62.234375 60.390625 62.996094 58.875 64.035156 C 59.824219 64.46875 60.90625 64.539062 62.042969 64.140625 C 60.953125 64.652344 59.742188 64.734375 58.519531 64.289062 C 57.433594 65.085938 56.464844 66.027344 55.636719 67.058594 C 57.113281 67.539062 58.722656 67.441406 60.324219 66.621094 C 58.855469 67.574219 57.125 67.933594 55.277344 67.527344 C 54.539062 68.515625 53.921875 69.578125 53.4375 70.671875 C 54.03125 71.109375 56.617188 72.484375 61.042969 69.21875 C 60.414062 69.035156 59.90625 68.773438 59.90625 68.773438 C 59.925781 68.78125 60.363281 68.820312 61.660156 68.046875 C 62.800781 67.378906 63.785156 66.167969 64.511719 65.226562 C 63.894531 64.996094 63.414062 64.757812 63.414062 64.757812 C 63.414062 64.757812 64.210938 64.808594 65.449219 63.863281 C 66.554688 63.019531 67.789062 61.792969 67.792969 61.828125 C 67.796875 61.832031 65.070312 59.816406 62.207031 59.726562 "/>
<path style=" stroke:none;fill-rule:nonzero;fill:#E47B19;fill-opacity:1;" d="M 42.484375 64.132812 C 43.785156 63.753906 44.609375 64.191406 44.785156 64.207031 C 44.570312 63.964844 44.425781 63.8125 43.949219 63.515625 C 45.242188 63.167969 46.511719 63.136719 47.636719 63.753906 C 49.148438 64.585938 49.28125 65.558594 49.28125 65.554688 C 49.28125 65.554688 49.328125 64.886719 49.222656 64.207031 C 51.011719 65.710938 52.136719 68.015625 51.570312 70.105469 C 50.566406 68.75 49.25 67.707031 47.710938 67.007812 C 47.40625 65.941406 46.746094 65.140625 45.890625 64.640625 C 46.695312 65.226562 47.175781 66 47.359375 66.859375 C 45.585938 66.128906 43.566406 65.859375 41.492188 66.136719 C 43.015625 66.027344 46.25 66.246094 48.871094 68.425781 C 47.835938 69.085938 46.585938 69.324219 45.203125 69.019531 C 46.507812 69.453125 47.898438 69.386719 49.234375 68.710938 C 49.984375 69.320312 50.652344 70.007812 51.226562 70.746094 C 50.851562 71.199219 49.136719 72.757812 45.144531 71.140625 C 45.589844 70.875 45.925781 70.574219 45.925781 70.574219 C 45.917969 70.582031 45.585938 70.703125 44.453125 70.367188 C 43.453125 70.082031 42.476562 69.351562 41.746094 68.777344 C 42.175781 68.484375 42.496094 68.203125 42.496094 68.203125 C 42.496094 68.203125 41.898438 68.402344 40.777344 67.925781 C 39.773438 67.496094 38.605469 66.804688 38.605469 66.832031 C 38.601562 66.839844 40.3125 64.765625 42.484375 64.132812 "/>
<path style=" stroke:none;fill-rule:nonzero;fill:#E33F3B;fill-opacity:1;" d="M 51.804688 81.988281 C 50.859375 81.105469 50.816406 80.210938 50.746094 80.058594 C 50.648438 80.355469 50.589844 80.546875 50.578125 81.089844 C 49.660156 80.199219 49.015625 79.167969 48.980469 77.9375 C 48.933594 76.28125 49.679688 75.683594 49.675781 75.683594 C 49.675781 75.683594 49.097656 75.984375 48.582031 76.402344 C 48.960938 74.1875 50.332031 72.109375 52.347656 71.542969 C 51.707031 73.035156 51.480469 74.644531 51.652344 76.253906 C 50.910156 77.039062 50.566406 77.980469 50.566406 78.925781 C 50.664062 77.980469 51.070312 77.199219 51.699219 76.621094 C 51.953125 78.441406 52.714844 80.238281 53.957031 81.8125 C 53.125 80.609375 51.730469 77.839844 52.261719 74.597656 C 53.316406 75.121094 54.125 76.035156 54.542969 77.320312 C 54.269531 76.03125 53.535156 74.921875 52.320312 74.15625 C 52.464844 73.238281 52.710938 72.34375 53.046875 71.503906 C 53.605469 71.589844 55.738281 72.226562 56.339844 76.316406 C 55.902344 76.082031 55.488281 75.953125 55.488281 75.953125 C 55.5 75.957031 55.761719 76.167969 56.03125 77.269531 C 56.28125 78.234375 56.152344 79.398438 56.03125 80.289062 C 55.574219 80.078125 55.1875 79.953125 55.1875 79.953125 C 55.183594 79.953125 55.644531 80.347656 55.792969 81.511719 C 55.925781 82.546875 55.921875 83.855469 55.941406 83.839844 C 55.949219 83.839844 53.390625 83.460938 51.804688 81.988281 "/>
</g>
</svg>
